<?xml version="1.0" standalone="no"?><!DOCTYPE svg PUBLIC "-//W3C//DTD SVG 1.1//EN" "http://www.w3.org/Graphics/SVG/1.1/DTD/svg11.dtd"><svg t="1729230462496" class="icon" viewBox="0 0 1024 1024" version="1.1" xmlns="http://www.w3.org/2000/svg" p-id="17073" width="64" height="64" xmlns:xlink="http://www.w3.org/1999/xlink"><path d="M630.7328 813.6704c154.5216 13.9776 266.3424 54.6816 266.496 102.6048 0 59.4432-172.1856 107.7248-384.6144 107.7248-212.48 0-384.6144-48.2816-384.6144-107.7248 0-48.128 112.64-88.8832 268.288-102.7072l9.3184 9.0624c-81.6128 11.52-138.0352 35.84-138.0352 64.1536 0 39.424 109.7216 71.3216 245.0432 71.3216s245.0432-32 245.0432-71.3216c0-28.0576-55.6032-52.2752-136.2944-63.9488l9.3696-9.1648z m266.9568-442.4704c0 102.0416-42.6496 194.304-111.5136 261.5808v0.1024l-272.0256 264.2944-273.8176-264.192v-0.1024c-69.12-67.1232-111.872-159.5392-111.872-261.632C128.512 166.0928 300.6464 0 513.0752 0c212.48 0 384.6144 166.144 384.6144 371.2zM468.992 463.5648c-41.0112 13.9264-88.8832 25.3952-143.2576 33.6384l6.4512 45.056a846.336 846.336 0 0 0 136.8064-35.2256v-43.4688zM388.3008 172.9536c-14.2336 43.008-31.0784 82.432-50.0736 118.0672a38.5024 38.5024 0 0 1-18.5344 15.5648l11.2128 38.912c20.736-2.8672 40.1408-5.7344 59.0848-8.192-17.2544 31.5904-31.488 53.76-42.7008 66.4064-5.632 4.9152-12.4928 8.6016-20.2752 11.8784l11.6736 38.5536c34.9184-4.9152 72.0384-14.336 111.7184-29.0816v-38.144c-19.8144 7.7824-40.0896 14.336-59.9552 19.2512 22.4256-30.72 50.0224-78.6944 82.8416-144.2816l-39.2704-13.5168c-8.6528 18.0224-16.384 35.2768-24.1664 50.8416l-37.9392 4.9152c19.8144-30.3104 39.68-68.864 58.6752-115.6096l-42.2912-15.5648z m169.1136 221.3376l-23.7056 33.2288c42.24 9.8304 83.6608 23.7568 123.392 41.3696l22.016-32.768a800.768 800.768 0 0 0-121.7024-41.8304zM505.1904 458.24l-25.4464 35.6352c65.5872 15.2064 129.024 36.096 190.72 62.3104l24.1664-35.6352c-56.9856-24.576-120.3712-45.056-189.44-62.3104z m34.56-284.4672A228.7616 228.7616 0 0 1 465.92 286.1056l28.4672 34.816c10.752-9.4208 20.6848-19.2512 30.208-29.4912 12.0832 13.1072 25.4464 25.3952 39.68 37.6832a339.0464 339.0464 0 0 1-108.288 51.6608l22.016 37.6832c45.7216-14.7456 86.272-35.6352 120.7808-62.6688 31.0784 22.1184 66.048 40.96 104.448 56.9344l23.2448-38.5024a555.776 555.776 0 0 1-96.2048-46.7456c23.296-23.7568 43.5712-51.2 60.416-82.3808v-34.4064h-116.0704c3.8912-9.8304 7.3216-20.48 10.752-31.5904l-45.6704-5.3248z m55.6544 129.536a453.8368 453.8368 0 0 1-47.4624-41.8304c1.6896-3.2768 3.84-6.5536 6.0416-9.8304h84.992c-12.9536 18.432-27.1872 35.6864-43.5712 51.6608z" fill="#F0503E" p-id="17074"></path></svg>