<svg xmlns="http://www.w3.org/2000/svg" xmlns:v="https://svgstorm.com" viewBox="0 0 32 32" width="32" height="32">
    <g fill="None" fill-opacity="0.0" stroke="#FBFBFB" stroke-opacity="1.00" stroke-width="0.3">
        <path d="
M 0.00 3.00 
C 4.56 -0.70 4.61 8.66 0.00 5.00
L 0.00 19.00
C 4.56 15.30 4.61 24.66 0.00 21.00
L 0.00 32.00
L 32.00 32.00
L 32.00 29.00
C 27.44 32.70 27.39 23.34 32.00 27.00
L 32.00 13.00
C 27.44 16.70 27.39 7.34 32.00 11.00
L 32.00 0.00
L 0.00 0.00
L 0.00 3.00
M 11.00 2.00 
C 12.85 2.82 11.61 6.71 9.30 5.64 C 7.00 4.58 8.91 1.07 11.00 2.00
M 19.00 2.00 
C 20.85 2.82 19.61 6.71 17.30 5.64 C 15.00 4.58 16.91 1.07 19.00 2.00
M 27.00 2.00 
C 28.85 2.82 27.61 6.71 25.30 5.64 C 23.00 4.58 24.91 1.07 27.00 2.00
M 7.00 10.00 
C 8.85 10.82 7.61 14.71 5.30 13.64 C 3.00 12.58 4.91 9.07 7.00 10.00
M 15.00 10.00 
C 16.85 10.82 15.61 14.71 13.30 13.64 C 11.00 12.58 12.91 9.07 15.00 10.00
M 23.00 10.00 
C 24.85 10.82 23.61 14.71 21.30 13.64 C 19.00 12.58 20.91 9.07 23.00 10.00
M 11.00 18.00 
C 12.85 18.82 11.61 22.71 9.30 21.64 C 7.00 20.58 8.91 17.07 11.00 18.00
M 19.00 18.00 
C 20.85 18.82 19.61 22.71 17.30 21.64 C 15.00 20.58 16.91 17.07 19.00 18.00
M 27.00 18.00 
C 28.85 18.82 27.61 22.71 25.30 21.64 C 23.00 20.58 24.91 17.07 27.00 18.00
M 7.00 26.00 
C 8.85 26.82 7.61 30.71 5.30 29.64 C 3.00 28.58 4.91 25.07 7.00 26.00
M 15.00 26.00 
C 16.85 26.82 15.61 30.71 13.30 29.64 C 11.00 28.58 12.91 25.07 15.00 26.00
M 23.00 26.00 
C 24.85 26.82 23.61 30.71 21.30 29.64 C 19.00 28.58 20.91 25.07 23.00 26.00 Z" />
    </g>
    <g fill="None" fill-opacity="0.0" stroke="#7E7E7E" stroke-opacity="1.00" stroke-width="0.3">
        <path d="
M 0.00 3.00 
L 0.00 5.00
C 4.61 8.66 4.56 -0.70 0.00 3.00 Z" />
    </g>
    <g fill="None" fill-opacity="0.0" stroke="#7E7E7E" stroke-opacity="1.00" stroke-width="0.3">
        <path d="
M 11.00 2.00 
C 8.91 1.07 7.00 4.58 9.30 5.64 C 11.61 6.71 12.85 2.82 11.00 2.00 Z" />
    </g>
    <g fill="None" fill-opacity="0.0" stroke="#7E7E7E" stroke-opacity="1.00" stroke-width="0.3">
        <path d="
M 19.00 2.00 
C 16.91 1.07 15.00 4.58 17.30 5.64 C 19.61 6.71 20.85 2.82 19.00 2.00 Z" />
    </g>
    <g fill="None" fill-opacity="0.0" stroke="#7E7E7E" stroke-opacity="1.00" stroke-width="0.3">
        <path d="
M 27.00 2.00 
C 24.91 1.07 23.00 4.58 25.30 5.64 C 27.61 6.71 28.85 2.82 27.00 2.00 Z" />
    </g>
    <g fill="None" fill-opacity="0.0" stroke="#7E7E7E" stroke-opacity="1.00" stroke-width="0.3">
        <path d="
M 7.00 10.00 
C 4.91 9.07 3.00 12.58 5.30 13.64 C 7.61 14.71 8.85 10.82 7.00 10.00 Z" />
    </g>
    <g fill="None" fill-opacity="0.0" stroke="#7E7E7E" stroke-opacity="1.00" stroke-width="0.3">
        <path d="
M 15.00 10.00 
C 12.91 9.07 11.00 12.58 13.30 13.64 C 15.61 14.71 16.85 10.82 15.00 10.00 Z" />
    </g>
    <g fill="None" fill-opacity="0.0" stroke="#7E7E7E" stroke-opacity="1.00" stroke-width="0.3">
        <path d="
M 23.00 10.00 
C 20.91 9.07 19.00 12.58 21.30 13.64 C 23.61 14.71 24.85 10.82 23.00 10.00 Z" />
    </g>
    <g fill="None" fill-opacity="0.0" stroke="#7E7E7E" stroke-opacity="1.00" stroke-width="0.3">
        <path d="
M 32.00 13.00 
L 32.00 11.00
C 27.39 7.34 27.44 16.70 32.00 13.00 Z" />
    </g>
    <g fill="None" fill-opacity="0.0" stroke="#7E7E7E" stroke-opacity="1.00" stroke-width="0.3">
        <path d="
M 0.00 19.00 
L 0.00 21.00
C 4.61 24.66 4.56 15.30 0.00 19.00 Z" />
    </g>
    <g fill="None" fill-opacity="0.0" stroke="#7E7E7E" stroke-opacity="1.00" stroke-width="0.3">
        <path d="
M 11.00 18.00 
C 8.91 17.07 7.00 20.58 9.30 21.64 C 11.61 22.71 12.85 18.82 11.00 18.00 Z" />
    </g>
    <g fill="None" fill-opacity="0.0" stroke="#7E7E7E" stroke-opacity="1.00" stroke-width="0.3">
        <path d="
M 19.00 18.00 
C 16.91 17.07 15.00 20.58 17.30 21.64 C 19.61 22.71 20.85 18.82 19.00 18.00 Z" />
    </g>
    <g fill="None" fill-opacity="0.0" stroke="#7E7E7E" stroke-opacity="1.00" stroke-width="0.3">
        <path d="
M 27.00 18.00 
C 24.91 17.07 23.00 20.58 25.30 21.64 C 27.61 22.71 28.85 18.82 27.00 18.00 Z" />
    </g>
    <g fill="None" fill-opacity="0.0" stroke="#7E7E7E" stroke-opacity="1.00" stroke-width="0.3">
        <path d="
M 7.00 26.00 
C 4.91 25.07 3.00 28.58 5.30 29.64 C 7.61 30.71 8.85 26.82 7.00 26.00 Z" />
    </g>
    <g fill="None" fill-opacity="0.0" stroke="#7E7E7E" stroke-opacity="1.00" stroke-width="0.3">
        <path d="
M 15.00 26.00 
C 12.91 25.07 11.00 28.58 13.30 29.64 C 15.61 30.71 16.85 26.82 15.00 26.00 Z" />
    </g>
    <g fill="None" fill-opacity="0.0" stroke="#7E7E7E" stroke-opacity="1.00" stroke-width="0.3">
        <path d="
M 23.00 26.00 
C 20.91 25.07 19.00 28.58 21.30 29.64 C 23.61 30.71 24.85 26.82 23.00 26.00 Z" />
    </g>
    <g fill="None" fill-opacity="0.0" stroke="#7E7E7E" stroke-opacity="1.00" stroke-width="0.3">
        <path d="
M 32.00 29.00 
L 32.00 27.00
C 27.39 23.34 27.44 32.70 32.00 29.00 Z" />
    </g>
    <g fill="#FBFBFB" fill-opacity="1.00" stroke="None">
        <path d="
M 0.00 3.00 
C 4.56 -0.70 4.61 8.66 0.00 5.00
L 0.00 19.00
C 4.56 15.30 4.61 24.66 0.00 21.00
L 0.00 32.00
L 32.00 32.00
L 32.00 29.00
C 27.44 32.70 27.39 23.34 32.00 27.00
L 32.00 13.00
C 27.44 16.70 27.39 7.34 32.00 11.00
L 32.00 0.00
L 0.00 0.00
L 0.00 3.00
M 11.00 2.00 
C 12.85 2.82 11.61 6.71 9.30 5.64 C 7.00 4.58 8.91 1.07 11.00 2.00
M 19.00 2.00 
C 20.85 2.82 19.61 6.71 17.30 5.64 C 15.00 4.58 16.91 1.07 19.00 2.00
M 27.00 2.00 
C 28.85 2.82 27.61 6.71 25.30 5.64 C 23.00 4.58 24.91 1.07 27.00 2.00
M 7.00 10.00 
C 8.85 10.82 7.61 14.71 5.30 13.64 C 3.00 12.58 4.91 9.07 7.00 10.00
M 15.00 10.00 
C 16.85 10.82 15.61 14.71 13.30 13.64 C 11.00 12.58 12.91 9.07 15.00 10.00
M 23.00 10.00 
C 24.85 10.82 23.61 14.71 21.30 13.64 C 19.00 12.58 20.91 9.07 23.00 10.00
M 11.00 18.00 
C 12.85 18.82 11.61 22.71 9.30 21.64 C 7.00 20.58 8.91 17.07 11.00 18.00
M 19.00 18.00 
C 20.85 18.82 19.61 22.71 17.30 21.64 C 15.00 20.58 16.91 17.07 19.00 18.00
M 27.00 18.00 
C 28.85 18.82 27.61 22.71 25.30 21.64 C 23.00 20.58 24.91 17.07 27.00 18.00
M 7.00 26.00 
C 8.85 26.82 7.61 30.71 5.30 29.64 C 3.00 28.58 4.91 25.07 7.00 26.00
M 15.00 26.00 
C 16.85 26.82 15.61 30.71 13.30 29.64 C 11.00 28.58 12.91 25.07 15.00 26.00
M 23.00 26.00 
C 24.85 26.82 23.61 30.71 21.30 29.64 C 19.00 28.58 20.91 25.07 23.00 26.00 Z" />
    </g>
    <g fill="#7E7E7E" fill-opacity="1.00" stroke="None">
        <path d="
M 0.00 3.00 
L 0.00 5.00
C 4.61 8.66 4.56 -0.70 0.00 3.00 Z" />
    </g>
    <g fill="#7E7E7E" fill-opacity="1.00" stroke="None">
        <path d="
M 11.00 2.00 
C 8.91 1.07 7.00 4.58 9.30 5.64 C 11.61 6.71 12.85 2.82 11.00 2.00 Z" />
    </g>
    <g fill="#7E7E7E" fill-opacity="1.00" stroke="None">
        <path d="
M 19.00 2.00 
C 16.91 1.07 15.00 4.58 17.30 5.64 C 19.61 6.71 20.85 2.82 19.00 2.00 Z" />
    </g>
    <g fill="#7E7E7E" fill-opacity="1.00" stroke="None">
        <path d="
M 27.00 2.00 
C 24.91 1.07 23.00 4.58 25.30 5.64 C 27.61 6.71 28.85 2.82 27.00 2.00 Z" />
    </g>
    <g fill="#7E7E7E" fill-opacity="1.00" stroke="None">
        <path d="
M 7.00 10.00 
C 4.91 9.07 3.00 12.58 5.30 13.64 C 7.61 14.71 8.85 10.82 7.00 10.00 Z" />
    </g>
    <g fill="#7E7E7E" fill-opacity="1.00" stroke="None">
        <path d="
M 15.00 10.00 
C 12.91 9.07 11.00 12.58 13.30 13.64 C 15.61 14.71 16.85 10.82 15.00 10.00 Z" />
    </g>
    <g fill="#7E7E7E" fill-opacity="1.00" stroke="None">
        <path d="
M 23.00 10.00 
C 20.91 9.07 19.00 12.58 21.30 13.64 C 23.61 14.71 24.85 10.82 23.00 10.00 Z" />
    </g>
    <g fill="#7E7E7E" fill-opacity="1.00" stroke="None">
        <path d="
M 32.00 13.00 
L 32.00 11.00
C 27.39 7.34 27.44 16.70 32.00 13.00 Z" />
    </g>
    <g fill="#7E7E7E" fill-opacity="1.00" stroke="None">
        <path d="
M 0.00 19.00 
L 0.00 21.00
C 4.61 24.66 4.56 15.30 0.00 19.00 Z" />
    </g>
    <g fill="#7E7E7E" fill-opacity="1.00" stroke="None">
        <path d="
M 11.00 18.00 
C 8.91 17.07 7.00 20.58 9.30 21.64 C 11.61 22.71 12.85 18.82 11.00 18.00 Z" />
    </g>
    <g fill="#7E7E7E" fill-opacity="1.00" stroke="None">
        <path d="
M 19.00 18.00 
C 16.91 17.07 15.00 20.58 17.30 21.64 C 19.61 22.71 20.85 18.82 19.00 18.00 Z" />
    </g>
    <g fill="#7E7E7E" fill-opacity="1.00" stroke="None">
        <path d="
M 27.00 18.00 
C 24.91 17.07 23.00 20.58 25.30 21.64 C 27.61 22.71 28.85 18.82 27.00 18.00 Z" />
    </g>
    <g fill="#7E7E7E" fill-opacity="1.00" stroke="None">
        <path d="
M 7.00 26.00 
C 4.91 25.07 3.00 28.58 5.30 29.64 C 7.61 30.71 8.85 26.82 7.00 26.00 Z" />
    </g>
    <g fill="#7E7E7E" fill-opacity="1.00" stroke="None">
        <path d="
M 15.00 26.00 
C 12.91 25.07 11.00 28.58 13.30 29.64 C 15.61 30.71 16.85 26.82 15.00 26.00 Z" />
    </g>
    <g fill="#7E7E7E" fill-opacity="1.00" stroke="None">
        <path d="
M 23.00 26.00 
C 20.91 25.07 19.00 28.58 21.30 29.64 C 23.61 30.71 24.85 26.82 23.00 26.00 Z" />
    </g>
    <g fill="#7E7E7E" fill-opacity="1.00" stroke="None">
        <path d="
M 32.00 29.00 
L 32.00 27.00
C 27.39 23.34 27.44 32.70 32.00 29.00 Z" />
    </g>
</svg>